<?xml version="1.0" encoding="UTF-8"?>
<svg width="28px" height="28px" viewBox="0 0 28 28" version="1.1" xmlns="http://www.w3.org/2000/svg" xmlns:xlink="http://www.w3.org/1999/xlink">
    <!-- Generator: Sketch 52.2 (67145) - http://www.bohemiancoding.com/sketch -->
    <title>logo</title>
    <desc>Created with Sketch.</desc>
    <g id="Symbols" stroke="none" stroke-width="1" fill="none" fill-rule="evenodd">
        <g id="顶部栏-无权限" transform="translate(-25.000000, -11.000000)" fill="#2286FF">
            <g id="顶部栏">
                <g id="LOGO" transform="translate(25.000000, 11.000000)">
                    <path d="M27.907,12.438 C27.752,12.37 27.587,12.302 27.407,12.238 L27.214,12.165 C25.692,11.685 22.491,9.778 25.207,2.412 L8.2,12.3 L8.032,12.4 L13.791,15.691 L7.265,19.456 L7.208,19.383 C7.154,19.315 7.102,19.25 7.051,19.183 C7.029,19.156 7.01,19.126 6.991,19.099 C6.939,19.028 6.891,18.961 6.842,18.89 L6.785,18.8 C6.736,18.729 6.69,18.656 6.644,18.583 C6.625,18.553 6.609,18.523 6.59,18.493 C6.547,18.42 6.5,18.347 6.457,18.271 C6.438,18.238 6.422,18.206 6.405,18.176 C6.364,18.103 6.324,18.027 6.283,17.951 L6.234,17.851 C6.196,17.775 6.158,17.699 6.123,17.623 C6.107,17.588 6.093,17.552 6.077,17.517 C6.044,17.441 6.009,17.365 5.977,17.289 C5.961,17.251 5.947,17.21 5.931,17.172 C5.901,17.096 5.871,17.023 5.844,16.947 L5.8,16.828 C5.773,16.752 5.748,16.679 5.724,16.603 C5.71,16.56 5.697,16.513 5.683,16.467 L5.618,16.247 C5.604,16.198 5.594,16.147 5.58,16.098 C5.561,16.027 5.545,15.957 5.528,15.886 L5.5,15.724 C5.486,15.656 5.47,15.588 5.459,15.518 C5.448,15.448 5.44,15.399 5.432,15.336 C5.424,15.273 5.41,15.208 5.402,15.143 C5.394,15.078 5.386,15.01 5.38,14.943 C5.374,14.876 5.366,14.824 5.361,14.764 C5.353,14.683 5.35,14.601 5.345,14.52 C5.345,14.474 5.337,14.428 5.337,14.382 C5.332,14.254 5.329,14.124 5.329,13.994 C5.329,9.20513893 9.21113893,5.323 14,5.323 C14.149,5.323 14.3,5.323 14.442,5.334 C14.513,5.334 14.583,5.345 14.651,5.35 L14.876,5.366 C14.971,5.374 15.063,5.388 15.155,5.401 C15.204,5.406 15.255,5.412 15.304,5.42 C15.413,5.436 15.518,5.455 15.624,5.477 C15.657,5.482 15.692,5.488 15.724,5.496 C15.838,5.52 15.952,5.545 16.066,5.575 L16.139,5.591 C16.2556667,5.621 16.3723333,5.65433333 16.489,5.691 L16.546,5.707 C16.663,5.742 16.777,5.783 16.891,5.821 C16.9094012,5.82612964 16.9274409,5.83247697 16.945,5.84 C17.056,5.881 17.167,5.924 17.276,5.968 L17.382,6.009 L21.812,3.454 C21.698,3.497 21.581,3.53 21.465,3.563 C21.389,3.585 21.313,3.606 21.234,3.625 C21.155,3.644 21.079,3.66 21.001,3.674 C20.923,3.688 20.846,3.701 20.77,3.712 C20.694,3.723 20.615,3.731 20.539,3.736 C20.463,3.741 20.387,3.75 20.311,3.752 C20.235,3.754 20.159,3.752 20.083,3.752 C20.007,3.752 19.931,3.752 19.858,3.747 C19.785,3.742 19.709,3.733 19.633,3.725 C19.557,3.717 19.484,3.709 19.411,3.698 C19.338,3.687 19.262,3.671 19.189,3.655 C19.116,3.639 19.045,3.625 18.975,3.606 C18.905,3.587 18.831,3.565 18.758,3.541 C18.685,3.517 18.62,3.498 18.552,3.473 C18.484,3.448 18.411,3.416 18.34,3.386 C18.269,3.356 18.207,3.332 18.14,3.299 C18.073,3.266 18.004,3.228 17.94,3.19 L17.753,3.09 C17.685,3.049 17.623,3.003 17.553,2.96 C17.483,2.917 17.436,2.881 17.379,2.841 C17.322,2.801 17.254,2.741 17.192,2.686 C17.13,2.631 17.083,2.599 17.032,2.55 C16.981,2.501 16.913,2.433 16.856,2.374 C16.799,2.315 16.756,2.279 16.712,2.228 C16.668,2.177 16.601,2.092 16.547,2.028 C16.506,1.976 16.463,1.928 16.422,1.873 C16.368,1.797 16.316,1.716 16.265,1.637 C16.23,1.585 16.194,1.537 16.165,1.48 C16.111,1.388 16.065,1.29 16.013,1.195 C15.989,1.146 15.961,1.103 15.94,1.054 C15.8700104,0.904572498 15.8075979,0.751711861 15.753,0.596 C15.691,0.417 15.623,0.251 15.553,0.096 C15.2976667,0.0646666667 15.0396667,0.0406666667 14.779,0.024 C14.522,0.008 14.259,0 14,0 C13.741,0 13.476,0.008 13.216,0.022 C12.956,0.036 12.698,0.057 12.443,0.087 C12.375,0.242 12.307,0.407 12.243,0.587 C11.8178264,1.8661309 10.8577509,2.89734865 9.6122225,3.41271985 C8.36669411,3.92809105 6.95867501,3.87673677 5.754,3.272 C5.583,3.191 5.42,3.12 5.263,3.06 C4.45075652,3.70993259 3.71293259,4.44775652 3.063,5.26 C3.125,5.417 3.193,5.58 3.275,5.751 C3.5846006,6.39496194 3.75043354,7.09855766 3.761,7.813 C3.76471003,8.21764627 3.71562944,8.62104837 3.615,9.013 C3.582,9.138 3.547,9.26 3.504,9.379 C3.504,9.379 3.504,9.379 3.504,9.384 C3.493,9.414 3.482,9.444 3.471,9.471 C3.452,9.523 3.433,9.571 3.411,9.623 C2.88478968,10.8572592 1.85715219,11.8085059 0.586,12.238 C0.407,12.3 0.241,12.368 0.086,12.438 C0.062,12.652 0.045,12.867 0.032,13.081 C0.014,13.385 0,13.689 0,14 C0.00013257263,14.520211 0.029177362,15.0400126 0.087,15.557 C0.242,15.625 0.407,15.693 0.587,15.757 L0.78,15.83 C2.3,16.3 5.5,18.211 2.786,25.576 L19.8,15.691 L19.968,15.591 L14.207,12.3 L20.726,8.535 L20.783,8.608 C20.837,8.676 20.889,8.741 20.94,8.808 C20.962,8.835 20.981,8.865 21,8.892 C21.052,8.963 21.1,9.03 21.149,9.101 L21.206,9.188 C21.255,9.259 21.301,9.332 21.347,9.405 C21.366,9.435 21.382,9.465 21.401,9.495 C21.444,9.568 21.491,9.641 21.534,9.717 C21.553,9.75 21.569,9.782 21.586,9.812 C21.627,9.885 21.667,9.961 21.708,10.037 L21.757,10.137 C21.795,10.213 21.833,10.289 21.868,10.365 C21.884,10.4 21.898,10.436 21.914,10.471 C21.947,10.547 21.982,10.623 22.014,10.699 C22.03,10.737 22.044,10.778 22.06,10.816 C22.09,10.892 22.12,10.965 22.147,11.041 L22.188,11.163 C22.215,11.239 22.24,11.312 22.264,11.388 C22.278,11.431 22.291,11.478 22.305,11.524 L22.37,11.744 C22.384,11.793 22.394,11.844 22.408,11.893 C22.427,11.964 22.443,12.034 22.46,12.105 L22.493,12.268 C22.507,12.336 22.523,12.404 22.534,12.474 C22.545,12.544 22.553,12.593 22.561,12.656 C22.569,12.719 22.583,12.784 22.591,12.849 C22.599,12.914 22.607,12.982 22.613,13.049 C22.619,13.116 22.627,13.168 22.632,13.228 C22.64,13.309 22.643,13.391 22.648,13.472 C22.648,13.518 22.656,13.564 22.656,13.61 C22.661,13.738 22.664,13.868 22.664,13.998 C22.6634478,18.78608 18.78208,22.6674478 13.994,22.668 C13.845,22.668 13.694,22.668 13.552,22.657 C13.481,22.657 13.411,22.646 13.343,22.641 L13.118,22.625 C13.023,22.617 12.931,22.603 12.839,22.59 C12.79,22.585 12.739,22.579 12.69,22.571 C12.584,22.555 12.478,22.536 12.375,22.517 C12.34,22.512 12.304,22.506 12.269,22.498 C12.155,22.474 12.041,22.449 11.93,22.419 L11.857,22.403 C11.7403333,22.373 11.6236667,22.3396667 11.507,22.303 L11.45,22.287 C11.333,22.252 11.219,22.211 11.105,22.173 C11.0865988,22.1678704 11.0685591,22.161523 11.051,22.154 C10.94,22.113 10.829,22.07 10.72,22.026 L10.614,21.985 L6.18,24.548 C6.294,24.505 6.411,24.472 6.527,24.439 C6.603,24.417 6.679,24.396 6.758,24.377 C6.837,24.358 6.913,24.342 6.991,24.328 C7.069,24.314 7.146,24.301 7.222,24.29 C7.298,24.279 7.377,24.271 7.453,24.266 C7.529,24.261 7.605,24.252 7.681,24.25 C7.757,24.248 7.833,24.25 7.909,24.25 C7.985,24.25 8.061,24.25 8.134,24.255 C8.207,24.26 8.286,24.269 8.359,24.277 C8.432,24.285 8.508,24.293 8.581,24.304 C8.654,24.315 8.73,24.331 8.803,24.347 C8.876,24.363 8.947,24.377 9.017,24.396 C9.087,24.415 9.161,24.437 9.234,24.461 C9.307,24.485 9.372,24.504 9.44,24.529 C9.508,24.554 9.581,24.586 9.652,24.616 C9.723,24.646 9.785,24.67 9.852,24.703 C9.919,24.736 9.988,24.774 10.052,24.812 L10.239,24.912 C10.307,24.953 10.369,24.999 10.439,25.042 C10.509,25.085 10.556,25.121 10.613,25.161 C10.67,25.201 10.738,25.261 10.8,25.316 C10.862,25.371 10.909,25.403 10.96,25.452 C11.011,25.501 11.079,25.569 11.136,25.628 C11.193,25.687 11.236,25.723 11.28,25.774 C11.324,25.825 11.391,25.91 11.445,25.974 C11.486,26.026 11.529,26.074 11.57,26.129 C11.624,26.205 11.676,26.286 11.727,26.365 C11.762,26.417 11.798,26.465 11.827,26.522 C11.881,26.614 11.927,26.712 11.979,26.807 C12.003,26.856 12.031,26.899 12.052,26.948 C12.1219911,27.0974268 12.1844037,27.2502875 12.239,27.406 C12.301,27.585 12.369,27.751 12.439,27.906 C12.6943333,27.9333333 12.952,27.955 13.212,27.971 C13.472,27.985 13.733,27.993 13.996,27.993 C14.259,27.993 14.52,27.985 14.78,27.971 C15.04,27.957 15.298,27.936 15.553,27.906 C15.621,27.751 15.689,27.586 15.753,27.406 C16.1780981,26.1275157 17.1375807,25.0967314 18.3823681,24.5812366 C19.6271555,24.0657418 21.0344789,24.116378 22.239,24.72 C22.41,24.801 22.573,24.872 22.73,24.932 C23.5422435,24.2820674 24.2800674,23.5442435 24.93,22.732 C24.868,22.575 24.8,22.412 24.718,22.241 C24.4083994,21.5970381 24.2425665,20.8934423 24.232,20.179 C24.22829,19.7743537 24.2773706,19.3709516 24.378,18.979 C24.411,18.854 24.446,18.732 24.489,18.613 C24.489,18.613 24.489,18.613 24.489,18.608 C24.9751657,17.2647926 26.0466389,16.2161402 27.4,15.759 C27.579,15.697 27.745,15.629 27.9,15.559 C27.924,15.345 27.941,15.13 27.954,14.916 C27.973,14.616 27.987,14.316 27.987,14.002 C27.9906465,13.4795573 27.9639348,12.957344 27.907,12.438 Z" id="logo"></path>
                </g>
            </g>
        </g>
    </g>
</svg>