<svg id="图层_1" data-name="图层 1" xmlns="http://www.w3.org/2000/svg" viewBox="0 0 96.02 24.51"><defs><style>.cls-1{fill:#1b7cef;}.cls-2{fill:#fff;}</style></defs><title>logo-中</title><path class="cls-1" d="M31.42,13.44,31,13.26a4.06,4.06,0,0,1-2.35-5.68l0-.09h0l1.52-3.42L14,13.29l5.24,3-5.83,3.36a7.5,7.5,0,0,1-1.76-4.84,7.58,7.58,0,0,1,10.44-7L25.66,5.7a4.06,4.06,0,0,1-4.89-2.64,3.68,3.68,0,0,0-.17-.44,12.26,12.26,0,0,0-1.36-.08,12.44,12.44,0,0,0-1.37.08c-.06.13-.11.28-.17.44A4.07,4.07,0,0,1,12,5.41l-.43-.19A12.58,12.58,0,0,0,9.66,7.15c.05.14.12.28.19.43a4.07,4.07,0,0,1-2.36,5.68l-.43.18a11.6,11.6,0,0,0,0,2.72l.43.18A4.05,4.05,0,0,1,9.94,21.8L8.08,25.52,24.5,16.28l-5.25-3L25.06,10a7.58,7.58,0,0,1-5.82,12.43,7.44,7.44,0,0,1-3-.62l-3.91,2.49.12-.06c2.28-1.08,4.4,0,5.24,2.35.06.16.11.31.17.44a12.44,12.44,0,0,0,1.37.08A12.26,12.26,0,0,0,20.6,27a3.68,3.68,0,0,0,.17-.44,4.08,4.08,0,0,1,5.69-2.35l.43.19a12.58,12.58,0,0,0,1.93-1.93L28.63,22A4.06,4.06,0,0,1,31,16.34l.44-.18a13.25,13.25,0,0,0,0-2.72Z" transform="translate(-6.98 -2.54)"/><path class="cls-2" d="M36.55,17.23A17.78,17.78,0,0,0,39,11.37H36.66V10.26h2.49V7.05H40.3v3.21h2.22v1.11H40.3v2.9l.7-.74c.7.6,1.31,1.18,1.85,1.74l-.87.9q-.78-.9-1.68-1.8V23H39.15V14.15a16.62,16.62,0,0,1-2.06,4.52C36.94,18.2,36.75,17.72,36.55,17.23ZM44,15.51l1.23.49q-1.35,3-2.67,5.32a11.39,11.39,0,0,0-1.2-.57A38.46,38.46,0,0,0,44,15.51Zm-1.52-2.7H52.72V14H48.2V20.8c0,1.36-.63,2.05-1.88,2.05-.59,0-1.32,0-2.18,0,0-.39-.13-.85-.23-1.36A17.53,17.53,0,0,0,46,21.6c.65,0,1-.4,1-1.21V14H42.51ZM43.26,8H52V9.16H43.26Zm6,8.05,1.16-.56Q52,18.5,53,20.73l-1.31.58C51,19.61,50.2,17.87,49.28,16.07Z" transform="translate(-6.98 -2.54)"/><path class="cls-2" d="M54.5,7.85q1.36,1.59,2.75,3.36c-.07,0-.45.37-1.13,1-.81-1.14-1.7-2.3-2.65-3.48Zm1.44,6.73a9.65,9.65,0,0,0,1.25.56c-.78,2.25-1.54,4.51-2.29,6.76l-1.35-.61A68.7,68.7,0,0,0,55.94,14.58Zm.87-.9A23.81,23.81,0,0,0,60.62,7l1.21.43q-.53,1.25-1.11,2.4h8.61v1.13h-4v2.44h3.54v1.13H65.35v2.44h3.57v1.13H65.35v2.67h4.19v1.09H60.36v1.31H59.09V12.72c-.44.69-.88,1.34-1.35,2A5.69,5.69,0,0,0,56.81,13.68Zm3.55-.33h3.72V10.91H60.36Zm0,3.57h3.72V14.48H60.36Zm0,3.8h3.72V18.05H60.36Zm3-13.2,1.07-.67c.42.53.91,1.18,1.45,2l-1.13.75C64.25,8.78,63.79,8.1,63.37,7.52Z" transform="translate(-6.98 -2.54)"/><path class="cls-2" d="M77.09,21.29l4.8.1,4.51-.18c-.18.45-.36.88-.52,1.31l-4.88,0-4.19-.05a4.64,4.64,0,0,1-3.91-1.9,17.13,17.13,0,0,0-2.06,2.15l-.71-1.39s.76-.66,2.18-1.87V13.91H70.22V12.7h3.4v7A4.32,4.32,0,0,0,77.09,21.29ZM72,7.1c.84,1,1.67,2.06,2.49,3.14L73.28,11C72.55,9.94,71.77,8.87,71,7.82Zm9.23,8.07,1-.66c1.24,1.62,2.33,3.17,3.28,4.67l-1.18.8-.75-1.24c-3.1.19-5.32.38-6.67.55a7.79,7.79,0,0,0-1.16.28l-.6-1.18a4.07,4.07,0,0,0,1.06-1.05,33.71,33.71,0,0,0,2.19-3.91H74.9V12.19H86.11v1.24H79.94Q78.51,16,77.2,18l5.66-.36C82.32,16.81,81.76,16,81.18,15.17ZM76,8h9.17V9.21H76Z" transform="translate(-6.98 -2.54)"/><path class="cls-2" d="M88.71,16.69l3.42-.39c0,.53-.1.93-.13,1.18-2,.22-3.55.44-4.65.64l-.24-1.22a15.73,15.73,0,0,0,2.39-3.5l-2.34.18-.31-1a33.14,33.14,0,0,0,2.76-5.63l1.28.46q-1.38,2.93-2.65,5.07l1.79,0c.38-.72.79-1.52,1.22-2.4l1.18.52Q90.14,14.63,88.71,16.69Zm-1.77,4q2.61-.45,5.68-1.13c0,.45-.05.87-.05,1.26q-3.25.69-5.32,1.1Zm4.67-7.12A28.5,28.5,0,0,0,95.16,7l1.26.41c-.44,1-.86,1.83-1.28,2.65h7.66v1.12H99.22V13.6h3.45v1.11H99.22v2.47h3.45v1.11H99.22v2.54H103v1.11H94.69v1.12H93.44V13.11c-.35.58-.69,1.11-1,1.58A9.08,9.08,0,0,0,91.61,13.61Zm3.08,0H98V11.13H94.69Zm0,3.58H98V14.71H94.69Zm0,3.65H98V18.29H94.69ZM97.42,7.62l1-.64A19.64,19.64,0,0,1,100,9.21l-1.08.69A24.24,24.24,0,0,0,97.42,7.62Z" transform="translate(-6.98 -2.54)"/></svg>