<?xml version="1.0" encoding="utf-8"?>
<!-- Generator: Adobe Illustrator 22.1.0, SVG Export Plug-In . SVG Version: 6.00 Build 0)  -->
<svg version="1.1" id="图层_1" xmlns="http://www.w3.org/2000/svg" xmlns:xlink="http://www.w3.org/1999/xlink" x="0px" y="0px"
	 viewBox="0 0 120 30" style="enable-background:new 0 0 120 30;" xml:space="preserve">
<style type="text/css">
	.st0{fill:#FFFFFF;}
	.st1{fill:#1B7CEF;}
</style>
<g>
	<g>
		<path class="st0" d="M28.7,17.4l1.2-0.1c0.1,0.5,0.2,0.9,0.4,1.2c0.2,0.3,0.5,0.6,1,0.8c0.5,0.2,1,0.3,1.5,0.3
			c0.5,0,0.9-0.1,1.3-0.2c0.4-0.1,0.7-0.4,0.9-0.6c0.2-0.3,0.3-0.5,0.3-0.9c0-0.3-0.1-0.6-0.3-0.8c-0.2-0.2-0.5-0.4-0.9-0.6
			c-0.3-0.1-0.9-0.3-1.8-0.5c-0.9-0.2-1.6-0.4-1.9-0.6c-0.5-0.2-0.8-0.6-1.1-0.9c-0.2-0.4-0.3-0.8-0.3-1.2c0-0.5,0.1-1,0.4-1.4
			c0.3-0.4,0.7-0.8,1.2-1c0.5-0.2,1.2-0.3,1.8-0.3c0.7,0,1.4,0.1,2,0.4c0.6,0.2,1,0.6,1.3,1c0.3,0.5,0.5,1,0.5,1.6L35,13.6
			c-0.1-0.6-0.3-1.1-0.7-1.4c-0.4-0.3-1-0.5-1.7-0.5c-0.8,0-1.4,0.1-1.7,0.4c-0.4,0.3-0.5,0.6-0.5,1.1c0,0.4,0.1,0.7,0.4,0.9
			c0.3,0.2,0.9,0.5,2,0.7c1.1,0.2,1.8,0.5,2.2,0.6c0.6,0.3,1,0.6,1.3,1c0.3,0.4,0.4,0.9,0.4,1.4c0,0.5-0.2,1-0.5,1.5
			c-0.3,0.5-0.7,0.8-1.3,1.1c-0.6,0.3-1.2,0.4-1.9,0.4c-0.9,0-1.7-0.1-2.3-0.4c-0.6-0.3-1.1-0.7-1.4-1.2
			C28.9,18.7,28.7,18.1,28.7,17.4z"/>
		<path class="st0" d="M40.9,19.6l0.2,1.1c-0.3,0.1-0.7,0.1-0.9,0.1c-0.4,0-0.8-0.1-1-0.2c-0.2-0.1-0.4-0.3-0.5-0.6
			c-0.1-0.2-0.1-0.7-0.1-1.4v-4.1h-0.9v-1h0.9v-1.8l1.2-0.7v2.5h1.2v1h-1.2v4.2c0,0.3,0,0.6,0.1,0.7c0,0.1,0.1,0.2,0.2,0.2
			c0.1,0.1,0.2,0.1,0.4,0.1C40.5,19.6,40.7,19.6,40.9,19.6z"/>
		<path class="st0" d="M46.8,19.8c-0.5,0.4-0.9,0.7-1.3,0.8c-0.4,0.2-0.9,0.2-1.3,0.2c-0.8,0-1.4-0.2-1.8-0.6
			c-0.4-0.4-0.6-0.9-0.6-1.5c0-0.4,0.1-0.7,0.2-1c0.2-0.3,0.4-0.5,0.6-0.7c0.3-0.2,0.6-0.3,0.9-0.4c0.2-0.1,0.6-0.1,1.1-0.2
			c1-0.1,1.7-0.3,2.2-0.4c0-0.2,0-0.3,0-0.3c0-0.5-0.1-0.8-0.3-1.1c-0.3-0.3-0.8-0.4-1.4-0.4c-0.6,0-1,0.1-1.3,0.3
			c-0.3,0.2-0.5,0.6-0.6,1.1l-1.2-0.2c0.1-0.5,0.3-0.9,0.5-1.2c0.2-0.3,0.6-0.6,1.1-0.7c0.5-0.2,1-0.3,1.6-0.3
			c0.6,0,1.1,0.1,1.5,0.2c0.4,0.1,0.7,0.3,0.8,0.5c0.2,0.2,0.3,0.5,0.4,0.8c0,0.2,0.1,0.6,0.1,1.1v1.6c0,1.1,0,1.9,0.1,2.2
			c0.1,0.3,0.2,0.6,0.3,0.9H47C46.9,20.4,46.8,20.1,46.8,19.8z M46.7,17c-0.4,0.2-1.1,0.3-2,0.5c-0.5,0.1-0.9,0.2-1.1,0.2
			c-0.2,0.1-0.4,0.2-0.5,0.4C43,18.3,43,18.5,43,18.7c0,0.3,0.1,0.6,0.4,0.8c0.2,0.2,0.6,0.3,1.1,0.3c0.5,0,0.9-0.1,1.3-0.3
			c0.4-0.2,0.6-0.5,0.8-0.8c0.1-0.3,0.2-0.7,0.2-1.2V17z"/>
		<path class="st0" d="M49.8,20.6v-7.2h1.1v1c0.5-0.8,1.3-1.2,2.3-1.2c0.4,0,0.8,0.1,1.2,0.2c0.4,0.2,0.6,0.4,0.8,0.6
			c0.2,0.3,0.3,0.6,0.4,0.9c0,0.2,0.1,0.6,0.1,1.2v4.4h-1.2v-4.4c0-0.5,0-0.9-0.1-1.1c-0.1-0.2-0.3-0.4-0.5-0.6
			c-0.2-0.1-0.5-0.2-0.9-0.2c-0.5,0-1,0.2-1.3,0.5c-0.4,0.3-0.6,1-0.6,1.9v3.9H49.8z"/>
		<path class="st0" d="M62.2,20.6v-0.9c-0.5,0.7-1.1,1.1-2,1.1c-0.6,0-1.1-0.2-1.6-0.5c-0.5-0.3-0.9-0.8-1.1-1.3
			c-0.3-0.6-0.4-1.2-0.4-2c0-0.7,0.1-1.4,0.4-2c0.2-0.6,0.6-1,1.1-1.3c0.5-0.3,1-0.5,1.6-0.5c0.4,0,0.8,0.1,1.2,0.3
			c0.3,0.2,0.6,0.4,0.8,0.7v-3.6h1.2v10H62.2z M58.4,17c0,0.9,0.2,1.6,0.6,2.1c0.4,0.5,0.8,0.7,1.4,0.7c0.5,0,1-0.2,1.4-0.7
			c0.4-0.4,0.6-1.1,0.6-2c0-1-0.2-1.7-0.6-2.2c-0.4-0.5-0.8-0.7-1.4-0.7c-0.5,0-1,0.2-1.4,0.7C58.6,15.4,58.4,16.1,58.4,17z"/>
		<path class="st0" d="M70,19.8c-0.5,0.4-0.9,0.7-1.3,0.8c-0.4,0.2-0.9,0.2-1.3,0.2c-0.8,0-1.4-0.2-1.8-0.6
			c-0.4-0.4-0.6-0.9-0.6-1.5c0-0.4,0.1-0.7,0.2-1c0.2-0.3,0.4-0.5,0.6-0.7c0.3-0.2,0.6-0.3,0.9-0.4c0.2-0.1,0.6-0.1,1.1-0.2
			c1-0.1,1.7-0.3,2.2-0.4c0-0.2,0-0.3,0-0.3c0-0.5-0.1-0.8-0.3-1.1c-0.3-0.3-0.8-0.4-1.4-0.4c-0.6,0-1,0.1-1.3,0.3
			c-0.3,0.2-0.5,0.6-0.6,1.1l-1.2-0.2c0.1-0.5,0.3-0.9,0.5-1.2c0.2-0.3,0.6-0.6,1.1-0.7c0.5-0.2,1-0.3,1.6-0.3
			c0.6,0,1.1,0.1,1.5,0.2c0.4,0.1,0.7,0.3,0.8,0.5c0.2,0.2,0.3,0.5,0.4,0.8c0,0.2,0.1,0.6,0.1,1.1v1.6c0,1.1,0,1.9,0.1,2.2
			c0.1,0.3,0.2,0.6,0.3,0.9h-1.3C70.1,20.4,70,20.1,70,19.8z M69.9,17c-0.4,0.2-1.1,0.3-2,0.5c-0.5,0.1-0.9,0.2-1.1,0.2
			c-0.2,0.1-0.4,0.2-0.5,0.4c-0.1,0.2-0.2,0.4-0.2,0.6c0,0.3,0.1,0.6,0.4,0.8c0.2,0.2,0.6,0.3,1.1,0.3c0.5,0,0.9-0.1,1.3-0.3
			c0.4-0.2,0.6-0.5,0.8-0.8c0.1-0.3,0.2-0.7,0.2-1.2V17z"/>
		<path class="st0" d="M73,20.6v-7.2h1.1v1.1c0.3-0.5,0.5-0.8,0.8-1c0.2-0.2,0.5-0.2,0.8-0.2c0.4,0,0.8,0.1,1.3,0.4l-0.4,1.1
			c-0.3-0.2-0.6-0.3-0.9-0.3c-0.3,0-0.5,0.1-0.7,0.2c-0.2,0.2-0.4,0.4-0.5,0.7c-0.1,0.4-0.2,0.9-0.2,1.4v3.8H73z"/>
		<path class="st0" d="M82.3,20.6v-0.9c-0.5,0.7-1.1,1.1-2,1.1c-0.6,0-1.1-0.2-1.6-0.5c-0.5-0.3-0.9-0.8-1.1-1.3
			c-0.3-0.6-0.4-1.2-0.4-2c0-0.7,0.1-1.4,0.4-2c0.2-0.6,0.6-1,1.1-1.3c0.5-0.3,1-0.5,1.6-0.5c0.4,0,0.8,0.1,1.2,0.3
			c0.3,0.2,0.6,0.4,0.8,0.7v-3.6h1.2v10H82.3z M78.5,17c0,0.9,0.2,1.6,0.6,2.1c0.4,0.5,0.8,0.7,1.4,0.7c0.5,0,1-0.2,1.4-0.7
			c0.4-0.4,0.6-1.1,0.6-2c0-1-0.2-1.7-0.6-2.2c-0.4-0.5-0.8-0.7-1.4-0.7c-0.5,0-1,0.2-1.4,0.7C78.7,15.4,78.5,16.1,78.5,17z"/>
		<path class="st0" d="M89,15.8c0-1.7,0.4-2.9,1.3-3.9c0.9-0.9,2-1.4,3.4-1.4c0.9,0,1.7,0.2,2.5,0.7c0.7,0.4,1.3,1.1,1.7,1.8
			c0.4,0.8,0.6,1.7,0.6,2.7c0,1-0.2,1.9-0.6,2.7c-0.4,0.8-1,1.4-1.7,1.8c-0.7,0.4-1.6,0.6-2.4,0.6c-0.9,0-1.8-0.2-2.5-0.7
			c-0.7-0.5-1.3-1.1-1.7-1.9C89.2,17.5,89,16.7,89,15.8z M90.4,15.8c0,1.2,0.3,2.1,1,2.8c0.6,0.7,1.5,1,2.4,1c1,0,1.8-0.3,2.4-1
			c0.6-0.7,1-1.7,1-3c0-0.8-0.1-1.5-0.4-2.1c-0.3-0.6-0.7-1.1-1.2-1.4c-0.5-0.3-1.1-0.5-1.8-0.5c-0.9,0-1.7,0.3-2.4,1
			C90.7,13.2,90.4,14.3,90.4,15.8z"/>
		<path class="st0" d="M100.2,20.6v-10h3.8c0.7,0,1.2,0,1.5,0.1c0.5,0.1,0.9,0.2,1.2,0.5c0.3,0.2,0.6,0.5,0.8,1
			c0.2,0.4,0.3,0.9,0.3,1.4c0,0.8-0.3,1.6-0.8,2.1c-0.5,0.6-1.5,0.9-2.9,0.9h-2.6v4H100.2z M101.6,15.4h2.6c0.9,0,1.5-0.2,1.8-0.5
			c0.4-0.3,0.5-0.8,0.5-1.3c0-0.4-0.1-0.8-0.3-1.1c-0.2-0.3-0.5-0.5-0.8-0.6c-0.2-0.1-0.6-0.1-1.2-0.1h-2.5V15.4z"/>
		<path class="st0" d="M109.1,17.4l1.2-0.1c0.1,0.5,0.2,0.9,0.4,1.2c0.2,0.3,0.5,0.6,1,0.8c0.5,0.2,1,0.3,1.5,0.3
			c0.5,0,0.9-0.1,1.3-0.2c0.4-0.1,0.7-0.4,0.9-0.6c0.2-0.3,0.3-0.5,0.3-0.9c0-0.3-0.1-0.6-0.3-0.8c-0.2-0.2-0.5-0.4-0.9-0.6
			c-0.3-0.1-0.9-0.3-1.8-0.5c-0.9-0.2-1.6-0.4-1.9-0.6c-0.5-0.2-0.8-0.6-1.1-0.9c-0.2-0.4-0.3-0.8-0.3-1.2c0-0.5,0.1-1,0.4-1.4
			c0.3-0.4,0.7-0.8,1.2-1c0.5-0.2,1.2-0.3,1.8-0.3c0.7,0,1.4,0.1,2,0.4c0.6,0.2,1,0.6,1.3,1c0.3,0.5,0.5,1,0.5,1.6l-1.3,0.1
			c-0.1-0.6-0.3-1.1-0.7-1.4c-0.4-0.3-1-0.5-1.7-0.5c-0.8,0-1.4,0.1-1.7,0.4c-0.4,0.3-0.5,0.6-0.5,1.1c0,0.4,0.1,0.7,0.4,0.9
			c0.3,0.2,0.9,0.5,2,0.7c1.1,0.2,1.8,0.5,2.2,0.6c0.6,0.3,1,0.6,1.3,1c0.3,0.4,0.4,0.9,0.4,1.4c0,0.5-0.2,1-0.5,1.5
			c-0.3,0.5-0.7,0.8-1.3,1.1c-0.6,0.3-1.2,0.4-1.9,0.4c-0.9,0-1.7-0.1-2.3-0.4c-0.6-0.3-1.1-0.7-1.4-1.2
			C109.3,18.7,109.1,18.1,109.1,17.4z"/>
	</g>
</g>
<path class="st1" d="M25.4,13.4c-0.1-0.1-0.3-0.1-0.4-0.2c-2.3-0.8-3.3-3.3-2.3-5.5c0,0,0-0.1,0-0.1l0,0l1.5-3.3l-15.8,9l5.1,2.9
	l-5.7,3.3c-1.1-1.3-1.7-2.9-1.7-4.7c0-4.1,3.3-7.4,7.4-7.4c1,0,1.9,0.2,2.8,0.5l3.5-2c-2,0.5-4-0.5-4.8-2.6C15,3.1,15,3,14.9,2.8
	c-0.4,0-0.9-0.1-1.3-0.1s-0.9,0-1.3,0.1c-0.1,0.1-0.1,0.3-0.2,0.4c-0.8,2.3-3.3,3.3-5.5,2.3C6.4,5.5,6.3,5.4,6.1,5.4
	C5.4,5.9,4.8,6.6,4.3,7.3c0.1,0.1,0.1,0.3,0.2,0.4c1.1,2.2,0,4.7-2.3,5.5c-0.2,0.1-0.3,0.1-0.4,0.2c0,0.4-0.1,0.9-0.1,1.3
	c0,0.4,0,0.9,0.1,1.3c0.1,0.1,0.3,0.1,0.4,0.2c2.2,0.8,3.3,3.2,2.4,5.3l-1.8,3.6l16-9l-5.1-2.9l5.7-3.2c1.1,1.3,1.7,2.9,1.7,4.7
	c0,4.1-3.3,7.4-7.4,7.4c-1,0-2-0.2-2.9-0.6l-3.8,2.4c0,0,0.1,0,0.1-0.1c2.2-1.1,4.3,0,5.1,2.3c0.1,0.2,0.1,0.3,0.2,0.4
	c0.4,0,0.9,0.1,1.3,0.1s0.9,0,1.3-0.1c0.1-0.1,0.1-0.3,0.2-0.4c0.8-2.3,3.3-3.3,5.5-2.3c0.1,0.1,0.3,0.1,0.4,0.2
	c0.7-0.6,1.3-1.2,1.9-1.9c-0.1-0.1-0.1-0.3-0.2-0.4c-1.1-2.2,0-4.7,2.3-5.5c0.2-0.1,0.3-0.1,0.4-0.2c0-0.4,0.1-0.9,0.1-1.3
	C25.5,14.3,25.5,13.8,25.4,13.4z"/>
</svg>
