<?xml version="1.0" encoding="iso-8859-1"?>
<!-- Generator: Adobe Illustrator 16.0.0, SVG Export Plug-In . SVG Version: 6.00 Build 0)  -->
<!DOCTYPE svg PUBLIC "-//W3C//DTD SVG 1.1//EN" "http://www.w3.org/Graphics/SVG/1.1/DTD/svg11.dtd">
<svg version="1.1" id="Capa_1" xmlns="http://www.w3.org/2000/svg" xmlns:xlink="http://www.w3.org/1999/xlink" x="0px" y="0px"
	 width="612.008px" height="612.008px" viewBox="0 0 612.008 612.008" style="enable-background:new 0 0 612.008 612.008;"
	 xml:space="preserve">
<g>
	<g id="Shape_379">
		<g>
			<path d="M609.208,298.554L313.306,3.315c-3.987-3.988-10.445-3.988-14.433,0L2.961,298.554c-3.988,3.988-3.907,10.354,0,14.433
				c1.999,2.051,4.61,3.111,7.201,3.132v0.021h71.441v285.355c0,2.794,1.142,5.334,2.988,7.17c1.846,1.847,4.396,3.02,7.211,3.02
				h142.8c5.63,0,10.2-4.59,10.2-10.189V397.719h122.401v203.776c0,5.6,4.569,10.189,10.2,10.189h142.8
				c5.63,0,10.2-4.59,10.2-10.189V316.14h71.899c2.673,0.051,5.191-1,6.905-3.152C612.676,308.541,613.197,302.542,609.208,298.554z
				 M520.204,295.086v0.724c-1.408,0-2.754,0.286-3.968,0.785c-3.662,1.571-6.232,5.182-6.232,9.405v285.294h-122.4V387.539
				c0-5.64-4.569-10.199-10.199-10.199H234.603c-5.63,0-10.2,4.56-10.2,10.199v203.756h-122.4V306.001
				c0-4.213-2.57-7.834-6.232-9.395c-1.213-0.5-2.56-0.785-3.968-0.785v-0.408l-56.834,0.031L306.084,24.898l270.719,270.137
				L520.204,295.086z"/>
		</g>
	</g>
</g>
<g>
</g>
<g>
</g>
<g>
</g>
<g>
</g>
<g>
</g>
<g>
</g>
<g>
</g>
<g>
</g>
<g>
</g>
<g>
</g>
<g>
</g>
<g>
</g>
<g>
</g>
<g>
</g>
<g>
</g>
</svg>
