<?xml version="1.0" encoding="iso-8859-1"?>
<!-- Generator: Adobe Illustrator 16.0.0, SVG Export Plug-In . SVG Version: 6.00 Build 0)  -->
<!DOCTYPE svg PUBLIC "-//W3C//DTD SVG 1.1//EN" "http://www.w3.org/Graphics/SVG/1.1/DTD/svg11.dtd">
<svg version="1.1" id="Capa_1" xmlns="http://www.w3.org/2000/svg" xmlns:xlink="http://www.w3.org/1999/xlink" x="0px" y="0px"
	 width="444.819px" height="444.819px" viewBox="0 0 444.819 444.819" style="enable-background:new 0 0 444.819 444.819;"
	 xml:space="preserve">
<g>
	<path d="M433.968,278.657L248.387,92.79c-7.419-7.044-16.08-10.566-25.977-10.566c-10.088,0-18.652,3.521-25.697,10.566
		L10.848,278.657C3.615,285.887,0,294.549,0,304.637c0,10.28,3.619,18.843,10.848,25.693l21.411,21.413
		c6.854,7.23,15.42,10.852,25.697,10.852c10.278,0,18.842-3.621,25.697-10.852L222.41,213.271L361.168,351.74
		c6.848,7.228,15.413,10.852,25.7,10.852c10.082,0,18.747-3.624,25.975-10.852l21.409-21.412
		c7.043-7.043,10.567-15.608,10.567-25.693C444.819,294.545,441.205,285.884,433.968,278.657z"/>
</g>
<g>
</g>
<g>
</g>
<g>
</g>
<g>
</g>
<g>
</g>
<g>
</g>
<g>
</g>
<g>
</g>
<g>
</g>
<g>
</g>
<g>
</g>
<g>
</g>
<g>
</g>
<g>
</g>
<g>
</g>
</svg>
