<?xml version="1.0" encoding="UTF-8"?>
<svg width="16px" height="15px" viewBox="0 0 16 15" version="1.1" xmlns="http://www.w3.org/2000/svg" xmlns:xlink="http://www.w3.org/1999/xlink">
    <title>Icon/çº¿æ€§å›¾æ ‡/fullscreenå¤‡ä»½ 4</title>
    <defs>
        <linearGradient x1="75.6424046%" y1="16.6849933%" x2="12.3809%" y2="90.2589631%" id="linearGradient-1">
            <stop stop-color="#C5FFFF" offset="0%"></stop>
            <stop stop-color="#5CB8FF" offset="100%"></stop>
        </linearGradient>
    </defs>
    <g id="ðŸ¤–-AI-å°é²¸" stroke="none" stroke-width="1" fill="none" fill-rule="evenodd">
        <g id="æ‰§è¡Œè„šæœ¬-AIåŠŸèƒ½" transform="translate(-1181.95, -2105)" fill="url(#linearGradient-1)">
            <g id="ç¼–ç»„å¤‡ä»½-2" transform="translate(0, 1864)">
                <g id="Coder-Editor/å¤šè¯­è¨€" transform="translate(166, 229)">
                    <g id="Icon/çº¿æ€§å›¾æ ‡/fullscreenå¤‡ä»½-4" transform="translate(1015.95, 12)">
                        <path d="M10,2 C12.209139,2 14,3.790861 14,6 L14,8 C15.1045695,8 16,8.8954305 16,10 L14,10 L14,15 L7,15 C4.23857625,15 2,12.7614237 2,10 L0,10 L0.00548573643,9.85073766 C0.0818348781,8.81587779 0.945638205,8 2,8 L2,6 C2,3.790861 3.790861,2 6,2 L10,2 Z M7.2524558,5 L5.72789784,5 L3.5,11 L4.90667976,11 L5.3546169,9.6249193 L7.56679764,9.6249193 L8.02259332,11 L9.43713163,11 L7.2524558,5 Z M11.5,5 L10.2033399,5 L10.2033399,11 L11.5,11 L11.5,5 Z M6.47445972,6.03421562 C6.49279633,6.25112976 6.52423052,6.42543577 6.56876228,6.55713363 L7.26031434,8.63718528 L5.63752456,8.63718528 L6.33300589,6.54163977 C6.38801572,6.37895416 6.42337917,6.20981278 6.43909627,6.03421562 Z M6.39710131,0 C7.1945247,0 7.72882426,0.666666667 8,2 C7.72882426,1.62790887 7.1945247,1.44264889 6.39710131,1.44422004 C5.20096623,1.44657678 5.20096623,0 6.39710131,0 Z M9.60289869,0 C10.7990338,0 10.7990338,1.44657678 9.60289869,1.44422004 C8.8054753,1.44264889 8.27117574,1.62790887 8,2 C8.27117574,0.666666667 8.8054753,0 9.60289869,0 Z" id="å½¢çŠ¶ç»“åˆ"></path>
                    </g>
                </g>
            </g>
        </g>
    </g>
</svg>