<?xml version="1.0" encoding="utf-8"?>
<!-- Generator: Adobe Illustrator 21.1.0, SVG Export Plug-In . SVG Version: 6.00 Build 0)  -->
<svg version="1.1" id="图层_1" xmlns="http://www.w3.org/2000/svg" xmlns:xlink="http://www.w3.org/1999/xlink" x="0px" y="0px"
	 viewBox="0 0 895 895" style="enable-background:new 0 0 895 895;" xml:space="preserve">
<style type="text/css">
	.st0{fill:#666666;}
</style>
<g>
	<path class="st0" d="M555.3,305.24c-13.64-12.89-30.95-21.6-51.92-26.15c-15.67-3.54-46.37-5.31-92.09-5.31h-50.41v368h83.76
		c31.33,0,53.94-1.77,67.84-5.31c18.19-4.55,33.29-12.25,45.29-23.12c12-10.86,21.79-28.74,29.37-53.63
		c7.58-24.88,11.37-58.8,11.37-101.76c0-42.95-3.79-75.92-11.37-98.92C579.55,336.07,568.94,318.12,555.3,305.24z"/>
	<path class="st0" d="M447.5,7.93C204.73,7.93,7.93,204.73,7.93,447.5s196.8,439.57,439.57,439.57s439.57-196.8,439.57-439.57
		S690.27,7.93,447.5,7.93z M697.42,581.14c-13.9,40.43-33.73,73.15-59.5,98.16c-19.46,18.95-45.73,33.73-78.83,44.34
		c-24.76,7.83-57.86,11.75-99.3,11.75h-211.1v-555.6h205.03c46.24,0,81.48,3.54,105.74,10.61c32.59,9.61,60.51,26.66,83.76,51.16
		c23.24,24.51,40.93,54.52,53.06,90.01c12.13,35.5,18.19,79.27,18.19,131.32C714.47,508.63,708.79,548.05,697.42,581.14z"/>
</g>
</svg>
