<svg id="图层_1" data-name="图层 1" xmlns="http://www.w3.org/2000/svg" xmlns:xlink="http://www.w3.org/1999/xlink" viewBox="0 0 52 58"><defs><style>.cls-1{filter:url(#filter-3);}.cls-2{fill:url(#未命名的渐变);}</style><filter id="filter-3" x="-9.7" y="-3.4" width="115.4" height="113.8" name="filter-3"><feOffset result="shadowOffsetOuter1" dy="2" in="SourceAlpha"/><feGaussianBlur result="shadowBlurOuter1" stdDeviation="1" in="shadowOffsetOuter1"/><feColorMatrix values="0 0 0 0 0 0 0 0 0 0 0 0 0 0 0 0 0 0 0.05 0" in="shadowBlurOuter1"/></filter><linearGradient id="未命名的渐变" x1="-271.17" y1="421.72" x2="-271.17" y2="420.72" gradientTransform="matrix(52, 0, 0, -58, 14129, 24460)" gradientUnits="userSpaceOnUse"><stop offset="0" stop-color="#e2e3e6"/><stop offset="1" stop-color="#c4c6cc"/></linearGradient></defs><title>lock2</title><g id="_02.用户端权限" data-name="02.用户端权限"><g id="WQ01.无权限操作"><g id="没有权限操作"><g id="导出"><g id="lock-fill"><g id="锁"><g class="cls-1"><path id="path-2" d="M51.64,25.52h-5V19.28Q46.61,0,28,0T9.39,19.28v6.24h-5A2.34,2.34,0,0,0,2,27.84V55.68A2.34,2.34,0,0,0,4.36,58H51.64A2.34,2.34,0,0,0,54,55.68V27.84A2.34,2.34,0,0,0,51.64,25.52ZM41,25H14V18S14,5,27.5,5,41,18,41,18Z" transform="translate(-2)"/></g><path id="path-2-2" data-name="path-2" class="cls-2" d="M51.64,25.52h-5V19.28Q46.61,0,28,0T9.39,19.28v6.24h-5A2.34,2.34,0,0,0,2,27.84V55.68A2.34,2.34,0,0,0,4.36,58H51.64A2.34,2.34,0,0,0,54,55.68V27.84A2.34,2.34,0,0,0,51.64,25.52ZM41,25H14V18S14,5,27.5,5,41,18,41,18Z" transform="translate(-2)"/></g></g></g></g></g></g></svg>