<?xml version="1.0" encoding="UTF-8"?>
<svg width="12px" height="12px" viewBox="0 0 12 12" version="1.1" xmlns="http://www.w3.org/2000/svg" xmlns:xlink="http://www.w3.org/1999/xlink">
    <title>编组 8备份</title>
    <g id="流程画布" stroke="none" stroke-width="1" fill="none" fill-rule="evenodd">
        <g id="项目流程-拖动节点插入提示优化" transform="translate(-757.000000, -1093.000000)">
            <g id="Page"></g>
            <g id="Page"></g>
            <g id="Page"></g>
            <g id="修订历史记录备份-2" transform="translate(49.000000, 603.000000)">
                <g id="编组" transform="translate(134.000000, 211.000000)">
                    <g id="编组-8备份" transform="translate(574.000000, 279.000000)">
                        <path d="M6,0 C9.3137085,0 12,2.6862915 12,6 C12,9.3137085 9.3137085,12 6,12 C2.6862915,12 0,9.3137085 0,6 C0,2.6862915 2.6862915,0 6,0 Z M6.46875,2.5625 L5.53125,2.5625 L5.53125,5.53125 L2.5625,5.53125 L2.5625,6.46875 L5.53125,6.46875 L5.53125,9.4375 L6.46875,9.4375 L6.46875,6.46875 L9.4375,6.46875 L9.4375,5.53125 L6.46875,5.53125 L6.46875,2.5625 Z" id="形状结合" fill="#3A84FF"></path>
                        <polygon id="路径" fill="#FFFFFF" points="9.4375 5.53125 6.46875 5.53125 6.46875 2.5625 5.53125 2.5625 5.53125 5.53125 2.5625 5.53125 2.5625 6.46875 5.53125 6.46875 5.53125 9.4375 6.46875 9.4375 6.46875 6.46875 9.4375 6.46875"></polygon>
                    </g>
                </g>
            </g>
        </g>
    </g>
</svg>