<?xml version="1.0" encoding="utf-8"?>
<!-- Generator: Adobe Illustrator 22.1.0, SVG Export Plug-In . SVG Version: 6.00 Build 0)  -->
<svg version="1.1" id="图层_1" xmlns="http://www.w3.org/2000/svg" xmlns:xlink="http://www.w3.org/1999/xlink" x="0px" y="0px"
	 viewBox="0 0 16 16" style="enable-background:new 0 0 16 16;" xml:space="preserve">
<style type="text/css">
	.st0{fill:#FFFFFF;}
	.st1{opacity:0.6;fill:#FFFFFF;}
	.st2{opacity:0.8;fill:#FFFFFF;}
	.st3{opacity:0.35;fill:#FFFFFF;}
	.st4{opacity:0.9;fill:#FFFFFF;}
	.st5{opacity:0.5;fill:#FFFFFF;}
	.st6{opacity:0.7;fill:#FFFFFF;}
	.st7{opacity:0.1;fill:#FFFFFF;}
</style>
<g>
	<path class="st0" d="M8,0C7.1,0,6.4,0.7,6.4,1.6c0,0.9,0.7,1.6,1.6,1.6c0.9,0,1.6-0.7,1.6-1.6C9.6,0.7,8.9,0,8,0z"/>
	<path class="st1" d="M6.4,14.4C6.4,15.3,7.1,16,8,16s1.6-0.7,1.6-1.6S8.9,12.9,8,12.9S6.4,13.6,6.4,14.4z"/>
	<path class="st2" d="M12.9,8c0,0.9,0.7,1.6,1.6,1.6S16,8.9,16,8c0-0.9-0.7-1.6-1.6-1.6S12.9,7.1,12.9,8z"/>
	<path class="st3" d="M0,8c0,0.9,0.7,1.6,1.6,1.6S3.1,8.9,3.1,8S2.4,6.4,1.6,6.4S0,7.1,0,8z"/>
	<path class="st4" d="M13.7,4.6c0.6-0.6,0.6-1.6,0-2.2c-0.6-0.6-1.6-0.6-2.2,0c-0.6,0.6-0.6,1.6,0,2.2C12,5.2,13,5.2,13.7,4.6z"/>
	<path class="st5" d="M1.9,12.5c0,0.9,0.7,1.6,1.6,1.6S5,13.4,5,12.5C5,11.7,4.3,11,3.5,11C2.6,11,1.9,11.7,1.9,12.5z"/>
	<path class="st6" d="M11,12.5c0,0.9,0.7,1.6,1.6,1.6c0.9,0,1.6-0.7,1.6-1.6l0,0c0-0.9-0.7-1.6-1.6-1.6S11,11.7,11,12.5L11,12.5z"/>
	<path class="st7" d="M1.9,3.5C1.9,4.3,2.6,5,3.5,5S5,4.3,5,3.5S4.3,1.9,3.5,1.9S1.9,2.6,1.9,3.5z"/>
</g>
</svg>
